<?xml version="1.0" encoding="UTF-8"?>
<svg id="Camada_1" data-name="Camada 1" xmlns="http://www.w3.org/2000/svg" viewBox="0 0 1375.28 640.62">
  <defs>
    <style>
      .cls-1 {
        fill: #0146c5;
      }
    </style>
  </defs>
  <g>
    <polygon class="cls-1" points="1028.95 43.73 974.37 98.31 819.99 98.31 792.7 125.61 792.69 125.61 738.12 180.2 738.11 180.2 687.69 230.62 687.69 230.62 668.39 249.92 668.36 249.96 649.05 269.25 687.65 307.85 706.94 288.54 706.98 288.51 726.27 269.21 726.27 269.2 707 249.92 745.59 211.33 764.87 230.61 803.47 269.21 764.88 307.8 764.88 307.81 745.58 327.11 745.55 327.14 726.24 346.44 687.64 385.04 649.04 346.45 649.04 346.44 629.76 327.16 629.74 327.14 610.45 307.85 571.86 269.26 610.46 230.66 629.76 211.35 629.79 211.32 660.91 180.2 687.69 153.43 715.5 125.61 715.51 125.61 742.8 98.31 742.8 98.31 797.38 43.73 1028.95 43.73"/>
    <polygon class="cls-1" points="668.38 134.12 629.79 172.72 555.38 98.31 400.91 98.31 346.32 43.73 577.99 43.73 668.38 134.12"/>
    <polygon class="cls-1" points="598.6 180.2 482.79 180.2 428.21 125.61 544.02 125.61 598.6 180.2"/>
    <polygon class="cls-1" points="947.07 125.61 892.48 180.2 776.71 180.2 831.3 125.61 947.07 125.61"/>
  </g>
  <g>
    <polygon class="cls-1" points="92.87 595.53 120.78 595.53 120.78 541 174.47 541 174.47 517.99 120.78 517.99 120.78 486.54 180.27 486.54 180.27 463.53 92.87 463.53 92.87 595.53"/>
    <path class="cls-1" d="M276.33,543.71c7.15-3.35,12.62-8.17,16.4-14.47,3.78-6.29,5.67-13.82,5.67-22.59s-1.86-16.32-5.58-22.78c-3.72-6.47-9.11-11.47-16.18-15.02-7.07-3.54-15.59-5.32-25.55-5.32h-52.07v131.99h27.91v-46.79h20.37l25,46.79h30.81l-28.01-51.29c.41-.18.83-.34,1.23-.53ZM226.93,486.35h18.82c5.37,0,9.83.78,13.37,2.35,3.54,1.57,6.19,3.86,7.93,6.86,1.74,3.01,2.61,6.7,2.61,11.09s-.87,7.97-2.61,10.89c-1.74,2.92-4.37,5.11-7.9,6.57-3.52,1.46-7.95,2.19-13.28,2.19h-18.95v-39.96Z"/>
    <polygon class="cls-1" points="346.03 541 402.49 541 402.49 517.99 346.03 517.99 346.03 486.54 407.06 486.54 407.06 463.53 318.12 463.53 318.12 595.53 407.32 595.53 407.32 572.52 346.03 572.52 346.03 541"/>
    <polygon class="cls-1" points="457.2 541 513.66 541 513.66 517.99 457.2 517.99 457.2 486.54 518.24 486.54 518.24 463.53 429.3 463.53 429.3 595.53 518.5 595.53 518.5 572.52 457.2 572.52 457.2 541"/>
    <polygon class="cls-1" points="540.47 595.53 568.38 595.53 568.38 541 622.06 541 622.06 517.99 568.38 517.99 568.38 486.54 627.86 486.54 627.86 463.53 540.47 463.53 540.47 595.53"/>
    <rect class="cls-1" x="646.62" y="463.53" width="27.91" height="131.99"/>
    <polygon class="cls-1" points="692.5 486.54 732.91 486.54 732.91 595.53 760.5 595.53 760.5 486.54 800.91 486.54 800.91 463.53 692.5 463.53 692.5 486.54"/>
    <polygon class="cls-1" points="901.45 546.54 900.29 546.54 843.31 463.53 818.82 463.53 818.82 595.53 846.73 595.53 846.73 512.45 847.7 512.45 905.12 595.53 929.23 595.53 929.23 463.53 901.45 463.53 901.45 546.54"/>
    <polygon class="cls-1" points="980.14 541 1036.6 541 1036.6 517.99 980.14 517.99 980.14 486.54 1041.17 486.54 1041.17 463.53 952.23 463.53 952.23 595.53 1041.43 595.53 1041.43 572.52 980.14 572.52 980.14 541"/>
    <path class="cls-1" d="M1152.35,532.11c-3.52-3.14-7.69-5.78-12.5-7.93-4.81-2.15-10.1-3.87-15.85-5.16l-11.86-2.84c-2.88-.64-5.59-1.43-8.12-2.35-2.54-.92-4.77-2.02-6.7-3.29-1.93-1.27-3.45-2.78-4.54-4.54-1.1-1.76-1.6-3.82-1.51-6.19,0-2.84.83-5.37,2.48-7.6s4.05-3.99,7.19-5.25c3.14-1.27,6.98-1.9,11.54-1.9,6.7,0,12.01,1.44,15.92,4.32,3.91,2.88,6.12,6.92,6.64,12.12h26.75c-.13-7.86-2.23-14.78-6.32-20.75-4.08-5.97-9.79-10.63-17.11-13.99-7.33-3.35-15.89-5.03-25.68-5.03s-18.22,1.68-25.78,5.03c-7.56,3.35-13.5,8.01-17.82,13.99-4.32,5.97-6.46,12.95-6.41,20.95-.04,9.75,3.16,17.51,9.6,23.27,6.44,5.76,15.23,9.99,26.36,12.7l14.37,3.61c4.81,1.16,8.88,2.45,12.21,3.87,3.33,1.42,5.86,3.14,7.6,5.16,1.74,2.02,2.61,4.51,2.61,7.48,0,3.18-.97,5.99-2.9,8.44-1.93,2.45-4.65,4.36-8.15,5.74-3.5,1.38-7.62,2.06-12.34,2.06s-9.12-.74-12.92-2.22c-3.8-1.48-6.83-3.69-9.09-6.64-2.26-2.94-3.53-6.63-3.83-11.05h-27c.21,9.5,2.52,17.46,6.93,23.88,4.4,6.42,10.55,11.27,18.43,14.53,7.88,3.26,17.15,4.9,27.81,4.9s19.93-1.62,27.55-4.87,13.47-7.82,17.53-13.73,6.11-12.9,6.16-20.98c-.04-5.5-1.04-10.38-3-14.63-1.96-4.25-4.69-7.95-8.22-11.09Z"/>
    <path class="cls-1" d="M1279.41,543.19c-1.96-4.25-4.69-7.95-8.22-11.09-3.52-3.14-7.69-5.78-12.5-7.93-4.81-2.15-10.1-3.87-15.85-5.16l-11.86-2.84c-2.88-.64-5.59-1.43-8.12-2.35-2.54-.92-4.77-2.02-6.7-3.29-1.93-1.27-3.45-2.78-4.54-4.54-1.1-1.76-1.6-3.82-1.51-6.19,0-2.84.83-5.37,2.48-7.6s4.05-3.99,7.19-5.25c3.14-1.27,6.98-1.9,11.54-1.9,6.7,0,12.01,1.44,15.92,4.32,3.91,2.88,6.12,6.92,6.64,12.12h26.75c-.13-7.86-2.23-14.78-6.32-20.75-4.08-5.97-9.79-10.63-17.11-13.99-7.33-3.35-15.89-5.03-25.68-5.03s-18.22,1.68-25.78,5.03c-7.56,3.35-13.5,8.01-17.82,13.99-4.32,5.97-6.46,12.95-6.41,20.95-.04,9.75,3.16,17.51,9.6,23.27,6.44,5.76,15.23,9.99,26.36,12.7l14.37,3.61c4.81,1.16,8.88,2.45,12.21,3.87,3.33,1.42,5.86,3.14,7.6,5.16,1.74,2.02,2.61,4.51,2.61,7.48,0,3.18-.97,5.99-2.9,8.44-1.93,2.45-4.65,4.36-8.15,5.74-3.5,1.38-7.62,2.06-12.34,2.06s-9.12-.74-12.92-2.22c-3.8-1.48-6.83-3.69-9.09-6.64-2.26-2.94-3.53-6.63-3.83-11.05h-27c.21,9.5,2.52,17.46,6.93,23.88,4.4,6.42,10.55,11.27,18.43,14.53,7.88,3.26,17.15,4.9,27.81,4.9s19.93-1.62,27.55-4.87,13.47-7.82,17.53-13.73c4.06-5.91,6.11-12.9,6.16-20.98-.04-5.5-1.04-10.38-3-14.63Z"/>
  </g>
</svg>