<?xml version="1.0" encoding="UTF-8"?>
<svg id="Camada_1" data-name="Camada 1" xmlns="http://www.w3.org/2000/svg" viewBox="0 0 791.63 395.82">
  <defs>
    <style>
      .cls-1 {
        fill: #0146c5;
      }
    </style>
  </defs>
  <polygon class="cls-1" points="757.2 17.11 699.41 74.91 535.95 74.91 507.06 103.81 507.05 103.81 449.26 161.61 449.25 161.61 395.87 214.99 395.87 215 375.44 235.43 375.4 235.47 354.96 255.9 395.83 296.76 416.26 276.32 416.29 276.29 436.73 255.85 436.73 255.84 416.31 235.43 457.18 194.57 477.59 214.98 518.46 255.85 477.6 296.72 477.6 296.73 457.17 317.16 457.13 317.19 436.69 337.63 395.82 378.5 354.95 337.64 354.94 337.63 334.53 317.21 334.51 317.19 314.09 296.77 273.23 255.91 314.1 215.04 334.53 194.6 334.57 194.56 367.52 161.61 395.87 133.26 425.32 103.81 425.32 103.81 454.22 74.91 454.23 74.91 512.01 17.11 757.2 17.11"/>
  <polygon class="cls-1" points="375.43 112.82 334.57 153.7 255.78 74.91 92.23 74.91 34.43 17.11 279.72 17.11 375.43 112.82"/>
  <polygon class="cls-1" points="301.54 161.61 178.93 161.61 121.13 103.81 243.75 103.81 301.54 161.61"/>
  <polygon class="cls-1" points="670.5 103.81 612.71 161.61 490.13 161.61 547.92 103.81 670.5 103.81"/>
</svg>